<svg width="280" height="180" viewBox="0 0 280 180" fill="none" xmlns="http://www.w3.org/2000/svg">
  <defs>
    <radialGradient id="meditationAura" cx="50%" cy="50%" r="60%">
      <stop offset="0%" style="stop-color:#a78bfa;stop-opacity:0.3" />
      <stop offset="50%" style="stop-color:#c084fc;stop-opacity:0.2" />
      <stop offset="100%" style="stop-color:#e879f9;stop-opacity:0.1" />
    </radialGradient>
    <linearGradient id="zenSkin1" x1="0%" y1="0%" x2="100%" y2="100%">
      <stop offset="0%" style="stop-color:#fbbf24;stop-opacity:1" />
      <stop offset="100%" style="stop-color:#f59e0b;stop-opacity:1" />
    </linearGradient>
    <linearGradient id="zenSkin2" x1="0%" y1="0%" x2="100%" y2="100%">
      <stop offset="0%" style="stop-color:#fcd34d;stop-opacity:1" />
      <stop offset="100%" style="stop-color:#f59e0b;stop-opacity:1" />
    </linearGradient>
    <linearGradient id="sacredBg" x1="0%" y1="0%" x2="100%" y2="100%">
      <stop offset="0%" style="stop-color:#f8fafc;stop-opacity:1" />
      <stop offset="50%" style="stop-color:#f1f5f9;stop-opacity:1" />
      <stop offset="100%" style="stop-color:#e2e8f0;stop-opacity:1" />
    </linearGradient>
  </defs>
  
  <!-- Sacred background -->
  <rect width="280" height="180" fill="url(#sacredBg)"/>
  
  <!-- Meditation aura -->
  <ellipse cx="140" cy="90" rx="120" ry="80" fill="url(#meditationAura)"/>
  
  <!-- Lotus petals beneath -->
  <g opacity="0.4" transform="translate(140, 140)">
    <ellipse cx="0" cy="10" rx="15" ry="5" fill="#f472b6" transform="rotate(0)"/>
    <ellipse cx="0" cy="10" rx="15" ry="5" fill="#ec4899" transform="rotate(45)"/>
    <ellipse cx="0" cy="10" rx="15" ry="5" fill="#f472b6" transform="rotate(90)"/>
    <ellipse cx="0" cy="10" rx="15" ry="5" fill="#ec4899" transform="rotate(135)"/>
    <ellipse cx="0" cy="10" rx="15" ry="5" fill="#f472b6" transform="rotate(180)"/>
    <ellipse cx="0" cy="10" rx="15" ry="5" fill="#ec4899" transform="rotate(225)"/>
    <ellipse cx="0" cy="10" rx="15" ry="5" fill="#f472b6" transform="rotate(270)"/>
    <ellipse cx="0" cy="10" rx="15" ry="5" fill="#ec4899" transform="rotate(315)"/>
  </g>
  
  <!-- Male figure (left, in lotus position) -->
  <g transform="translate(80, 70)">
    <!-- Head -->
    <ellipse cx="20" cy="18" rx="14" ry="16" fill="url(#zenSkin1)"/>
    <!-- Hair -->
    <path d="M6 12 Q8 2, 20 3 Q32 2, 34 12 Q34 18, 30 24 Q25 28, 20 26 Q15 28, 10 24 Q6 18, 6 12 Z" fill="#374151"/>
    <!-- Eyes (closed in meditation) -->
    <path d="M14 16 Q16 18, 18 16" stroke="#1f2937" stroke-width="1.5" fill="none"/>
    <path d="M22 16 Q24 18, 26 16" stroke="#1f2937" stroke-width="1.5" fill="none"/>
    <!-- Peaceful expression lines -->
    <path d="M12 14 Q16 12, 18 14" stroke="#6b7280" stroke-width="0.5" fill="none"/>
    <path d="M22 14 Q24 12, 28 14" stroke="#6b7280" stroke-width="0.5" fill="none"/>
    <!-- Nose -->
    <ellipse cx="20" cy="20" rx="1" ry="1.5" fill="#ea580c"/>
    <!-- Mouth (serene) -->
    <path d="M18 24 Q20 25, 22 24" stroke="#7c2d12" stroke-width="1" fill="none"/>
    <!-- Body -->
    <rect x="10" y="32" width="20" height="25" rx="10" fill="#7c3aed"/>
    <!-- Arms (mudra position) -->
    <ellipse cx="5" cy="42" rx="4" ry="12" fill="url(#zenSkin1)" transform="rotate(-30 5 42)"/>
    <ellipse cx="35" cy="42" rx="4" ry="12" fill="url(#zenSkin1)" transform="rotate(30 35 42)"/>
    <!-- Hands in mudra -->
    <circle cx="12" cy="50" r="3" fill="url(#zenSkin1)"/>
    <circle cx="28" cy="50" r="3" fill="url(#zenSkin1)"/>
    <!-- Legs in lotus -->
    <ellipse cx="8" cy="65" rx="8" ry="4" fill="#5b21b6" transform="rotate(15 8 65)"/>
    <ellipse cx="32" cy="65" rx="8" ry="4" fill="#5b21b6" transform="rotate(-15 32 65)"/>
  </g>
  
  <!-- Female figure (right, in lotus position) -->
  <g transform="translate(150, 75)">
    <!-- Head -->
    <ellipse cx="20" cy="16" rx="13" ry="15" fill="url(#zenSkin2)"/>
    <!-- Hair -->
    <path d="M7 10 Q5 0, 15 -1 Q20 -2, 25 -1 Q35 0, 33 10 Q35 22, 30 30 Q23 35, 20 33 Q17 35, 10 30 Q5 22, 7 10 Z" fill="#7c2d12"/>
    <!-- Hair bun -->
    <ellipse cx="20" cy="5" rx="8" ry="6" fill="#7c2d12"/>
    <!-- Eyes (closed in meditation) -->
    <path d="M14 14 Q16 16, 18 14" stroke="#1f2937" stroke-width="1.5" fill="none"/>
    <path d="M22 14 Q24 16, 26 14" stroke="#1f2937" stroke-width="1.5" fill="none"/>
    <!-- Peaceful expression -->
    <path d="M13 12 Q16 10, 18 12" stroke="#6b7280" stroke-width="0.5" fill="none"/>
    <path d="M22 12 Q24 10, 27 12" stroke="#6b7280" stroke-width="0.5" fill="none"/>
    <!-- Nose -->
    <ellipse cx="20" cy="18" rx="1" ry="1.5" fill="#ea580c"/>
    <!-- Mouth (serene smile) -->
    <path d="M18 22 Q20 24, 22 22" stroke="#7c2d12" stroke-width="1" fill="none"/>
    <!-- Body -->
    <rect x="11" y="28" width="18" height="24" rx="9" fill="#ec4899"/>
    <!-- Arms (mudra position) -->
    <ellipse cx="6" cy="38" rx="4" ry="11" fill="url(#zenSkin2)" transform="rotate(-30 6 38)"/>
    <ellipse cx="34" cy="38" rx="4" ry="11" fill="url(#zenSkin2)" transform="rotate(30 34 38)"/>
    <!-- Hands in receiving mudra -->
    <circle cx="13" cy="46" r="3" fill="url(#zenSkin2)"/>
    <circle cx="27" cy="46" r="3" fill="url(#zenSkin2)"/>
    <!-- Legs in lotus -->
    <ellipse cx="9" cy="60" rx="7" ry="4" fill="#be185d" transform="rotate(12 9 60)"/>
    <ellipse cx="31" cy="60" rx="7" ry="4" fill="#be185d" transform="rotate(-12 31 60)"/>
  </g>
  
  <!-- Energy connection between them -->
  <path d="M125 95 Q140 85, 155 95" stroke="#a78bfa" stroke-width="2" fill="none" opacity="0.6"/>
  <circle cx="140" cy="90" r="3" fill="#a78bfa" opacity="0.5"/>
  
  <!-- Chakra energy points -->
  <g opacity="0.7">
    <!-- Male chakras -->
    <circle cx="100" cy="88" r="1.5" fill="#ef4444"/>  <!-- Root -->
    <circle cx="100" cy="85" r="1.5" fill="#f97316"/>  <!-- Sacral -->
    <circle cx="100" cy="82" r="1.5" fill="#eab308"/>  <!-- Solar -->
    <circle cx="100" cy="79" r="1.5" fill="#22c55e"/>  <!-- Heart -->
    <circle cx="100" cy="76" r="1.5" fill="#3b82f6"/>  <!-- Throat -->
    <circle cx="100" cy="73" r="1.5" fill="#6366f1"/>  <!-- Third Eye -->
    <circle cx="100" cy="70" r="1.5" fill="#8b5cf6"/>  <!-- Crown -->
    
    <!-- Female chakras -->
    <circle cx="170" cy="91" r="1.5" fill="#ef4444"/>  <!-- Root -->
    <circle cx="170" cy="88" r="1.5" fill="#f97316"/>  <!-- Sacral -->
    <circle cx="170" cy="85" r="1.5" fill="#eab308"/>  <!-- Solar -->
    <circle cx="170" cy="82" r="1.5" fill="#22c55e"/>  <!-- Heart -->
    <circle cx="170" cy="79" r="1.5" fill="#3b82f6"/>  <!-- Throat -->
    <circle cx="170" cy="76" r="1.5" fill="#6366f1"/>  <!-- Third Eye -->
    <circle cx="170" cy="73" r="1.5" fill="#8b5cf6"/>  <!-- Crown -->
  </g>
  
  <!-- Sacred geometry -->
  <g opacity="0.2">
    <circle cx="140" cy="90" r="50" stroke="#a78bfa" stroke-width="0.5" fill="none"/>
    <circle cx="140" cy="90" r="35" stroke="#c084fc" stroke-width="0.5" fill="none"/>
    <circle cx="140" cy="90" r="20" stroke="#e879f9" stroke-width="0.5" fill="none"/>
  </g>
  
  <!-- Floating spiritual symbols -->
  <g opacity="0.4">
    <!-- Om symbol simplified -->
    <path d="M40 40 Q45 35, 50 40 Q55 45, 50 50 Q45 45, 40 40" fill="#8b5cf6"/>
    <!-- Yin Yang -->
    <circle cx="240" cy="50" r="8" fill="#a78bfa"/>
    <path d="M240 42 A8 8 0 0 1 240 58 A4 4 0 0 1 240 50 A4 4 0 0 0 240 42" fill="white"/>
    <circle cx="240" cy="46" r="2" fill="white"/>
    <circle cx="240" cy="54" r="2" fill="#a78bfa"/>
  </g>
</svg>