<svg width="300" height="200" viewBox="0 0 300 200" fill="none" xmlns="http://www.w3.org/2000/svg">
  <!-- Background gradient -->
  <defs>
    <linearGradient id="bgGradient3" x1="0%" y1="0%" x2="100%" y2="100%">
      <stop offset="0%" style="stop-color:#f3e8ff;stop-opacity:1" />
      <stop offset="50%" style="stop-color:#e9d5ff;stop-opacity:1" />
      <stop offset="100%" style="stop-color:#c4b5fd;stop-opacity:0.5" />
    </linearGradient>
    <linearGradient id="danceSkin1" x1="0%" y1="0%" x2="100%" y2="100%">
      <stop offset="0%" style="stop-color:#fcd34d;stop-opacity:1" />
      <stop offset="100%" style="stop-color:#f59e0b;stop-opacity:1" />
    </linearGradient>
    <linearGradient id="danceSkin2" x1="0%" y1="0%" x2="100%" y2="100%">
      <stop offset="0%" style="stop-color:#fed7aa;stop-opacity:1" />
      <stop offset="100%" style="stop-color:#fdba74;stop-opacity:1" />
    </linearGradient>
    <radialGradient id="joyGlow" cx="50%" cy="50%" r="70%">
      <stop offset="0%" style="stop-color:#a78bfa;stop-opacity:0.6" />
      <stop offset="100%" style="stop-color:#a78bfa;stop-opacity:0.1" />
    </radialGradient>
  </defs>
  
  <!-- Background -->
  <rect width="300" height="200" fill="url(#bgGradient3)"/>
  
  <!-- Joy emanation -->
  <circle cx="150" cy="100" r="80" fill="url(#joyGlow)"/>
  
  <!-- Dance floor sparkles -->
  <g opacity="0.5">
    <circle cx="80" cy="170" r="2" fill="#a78bfa"/>
    <circle cx="120" cy="175" r="1.5" fill="#c4b5fd"/>
    <circle cx="180" cy="175" r="1.5" fill="#a78bfa"/>
    <circle cx="220" cy="170" r="2" fill="#c4b5fd"/>
  </g>
  
  <!-- Musical notes floating -->
  <g opacity="0.4">
    <path d="M60 40 Q58 35, 62 32 Q66 35, 64 40 L64 50 Q62 52, 60 50 Z" fill="#8b5cf6"/>
    <circle cx="62" cy="50" r="3" fill="#8b5cf6"/>
    
    <path d="M240 35 Q238 30, 242 27 Q246 30, 244 35 L244 45 Q242 47, 240 45 Z" fill="#8b5cf6"/>
    <circle cx="242" cy="45" r="2.5" fill="#8b5cf6"/>
    
    <path d="M270 60 Q268 57, 270 55 Q272 57, 271 60 L271 65 Q270 66, 269 65 Z" fill="#a78bfa"/>
    <circle cx="270" cy="65" r="1.5" fill="#a78bfa"/>
  </g>
  
  <!-- Male figure (dancing) -->
  <g transform="translate(90, 50)">
    <!-- Head -->
    <ellipse cx="20" cy="20" rx="17" ry="19" fill="url(#danceSkin1)"/>
    <!-- Hair -->
    <path d="M3 15 Q6 2, 20 4 Q34 2, 37 15 Q37 20, 33 26 Q26 31, 20 29 Q14 31, 7 26 Q3 20, 3 15 Z" fill="#374151"/>
    <!-- Eyes (joyful) -->
    <path d="M13 17 Q15 19, 17 17" stroke="#1f2937" stroke-width="1.5" fill="none"/>
    <path d="M23 17 Q25 19, 27 17" stroke="#1f2937" stroke-width="1.5" fill="none"/>
    <!-- Eyebrows (raised in joy) -->
    <path d="M12 14 Q15 12, 18 14" stroke="#374151" stroke-width="1.5" fill="none"/>
    <path d="M22 14 Q25 12, 28 14" stroke="#374151" stroke-width="1.5" fill="none"/>
    <!-- Nose -->
    <ellipse cx="20" cy="23" rx="1.5" ry="2" fill="#ea580c"/>
    <!-- Mouth (wide smile) -->
    <path d="M15 27 Q20 32, 25 27" stroke="#7c2d12" stroke-width="2" fill="none"/>
    <!-- Body (slightly turned) -->
    <rect x="8" y="35" width="24" height="35" rx="12" fill="#3b82f6" transform="rotate(-10 20 52)"/>
    <!-- Arms (one extended for dancing) -->
    <ellipse cx="35" cy="48" rx="6" ry="22" fill="url(#danceSkin1)" transform="rotate(45 35 48)"/>
    <ellipse cx="5" cy="48" rx="6" ry="22" fill="url(#danceSkin1)" transform="rotate(-45 5 48)"/>
    <!-- Hands -->
    <circle cx="45" cy="35" r="4" fill="url(#danceSkin1)"/>
    <!-- Legs (dancing position) -->
    <ellipse cx="15" cy="85" rx="6" ry="20" fill="#1e40af" transform="rotate(-15 15 85)"/>
    <ellipse cx="25" cy="85" rx="6" ry="20" fill="#1e40af" transform="rotate(15 25 85)"/>
  </g>
  
  <!-- Female figure (twirling) -->
  <g transform="translate(160, 45)">
    <!-- Head -->
    <ellipse cx="18" cy="18" rx="15" ry="17" fill="url(#danceSkin2)"/>
    <!-- Hair (flowing with movement) -->
    <path d="M3 12 Q1 1, 10 -1 Q18 -3, 26 -1 Q35 1, 33 12 Q35 25, 30 35 Q23 40, 18 38 Q13 40, 6 35 Q1 25, 3 12 Z" fill="#92400e"/>
    <!-- Hair movement -->
    <path d="M30 20 Q40 18, 50 25 Q45 30, 35 28" fill="#92400e"/>
    <path d="M6 25 Q-4 23, -14 30 Q-9 35, 1 33" fill="#92400e"/>
    <!-- Eyes (sparkling with joy) -->
    <circle cx="13" cy="16" r="2" fill="#1f2937"/>
    <circle cx="23" cy="16" r="2" fill="#1f2937"/>
    <!-- Eye highlights -->
    <circle cx="13.5" cy="15.5" r="0.5" fill="white"/>
    <circle cx="23.5" cy="15.5" r="0.5" fill="white"/>
    <!-- Eyelashes -->
    <path d="M11 15 L9 13" stroke="#1f2937" stroke-width="0.5"/>
    <path d="M13 14 L12 12" stroke="#1f2937" stroke-width="0.5"/>
    <path d="M15 15 L16 13" stroke="#1f2937" stroke-width="0.5"/>
    <path d="M21 15 L20 13" stroke="#1f2937" stroke-width="0.5"/>
    <path d="M23 14 L24 12" stroke="#1f2937" stroke-width="0.5"/>
    <path d="M25 15 L27 13" stroke="#1f2937" stroke-width="0.5"/>
    <!-- Nose -->
    <ellipse cx="18" cy="21" rx="1" ry="1.5" fill="#ea580c"/>
    <!-- Mouth (laughing) -->
    <ellipse cx="18" cy="25" rx="3" ry="2" fill="#7c2d12"/>
    <ellipse cx="18" cy="25" rx="2" ry="1" fill="#fca5a5"/>
    <!-- Body (dress flowing) -->
    <path d="M6 30 L18 33 L30 30 L32 55 L28 70 L8 70 L4 55 Z" fill="#ec4899"/>
    <!-- Dress movement -->
    <path d="M4 55 Q-2 60, 2 65 L8 70" fill="#be185d"/>
    <path d="M32 55 Q38 60, 34 65 L28 70" fill="#be185d"/>
    <!-- Arms (graceful dancing) -->
    <ellipse cx="2" cy="42" rx="5" ry="18" fill="url(#danceSkin2)" transform="rotate(-30 2 42)"/>
    <ellipse cx="34" cy="42" rx="5" ry="18" fill="url(#danceSkin2)" transform="rotate(60 34 42)"/>
    <!-- Hands -->
    <circle cx="-3" cy="25" r="3" fill="url(#danceSkin2)"/>
    <circle cx="42" cy="58" r="3" fill="url(#danceSkin2)"/>
  </g>
  
  <!-- Connection between dancers -->
  <path d="M135 85 Q145 75, 155 85" stroke="#a78bfa" stroke-width="2" fill="none" opacity="0.6"/>
  
  <!-- Dance energy sparkles -->
  <g opacity="0.8">
    <path d="M110 90 L112 95 L117 97 L112 99 L110 104 L108 99 L103 97 L108 95 Z" fill="#fbbf24"/>
    <path d="M190 80 L191 83 L194 84 L191 85 L190 88 L189 85 L186 84 L189 83 Z" fill="#fbbf24"/>
    <path d="M130 120 L131 122 L133 123 L131 124 L130 126 L129 124 L127 123 L129 122 Z" fill="#fbbf24"/>
    <path d="M170 110 L171 112 L173 113 L171 114 L170 116 L169 114 L167 113 L169 112 Z" fill="#fbbf24"/>
  </g>
  
  <!-- Joy particles -->
  <g opacity="0.6">
    <circle cx="70" cy="80" r="1" fill="#a78bfa"/>
    <circle cx="230" cy="90" r="1.5" fill="#8b5cf6"/>
    <circle cx="100" cy="140" r="1" fill="#c4b5fd"/>
    <circle cx="200" cy="140" r="1.5" fill="#a78bfa"/>
  </g>
</svg>